<svg width="31" height="31" viewBox="0 0 31 31" fill="none" xmlns="http://www.w3.org/2000/svg">
<g id="Group">
<path id="Vector" fill-rule="evenodd" clip-rule="evenodd" d="M15.7598 30.3852C7.43038 30.3852 0.678833 23.5936 0.678833 15.2148C0.678833 6.83602 7.43038 0.0444336 15.7598 0.0444336C24.0892 0.0444336 30.8407 6.83602 30.8407 15.2148C30.8407 23.5936 24.0892 30.3852 15.7598 30.3852ZM23.2946 15.4224L16.2292 3.83702L9.16186 15.4234L16.2292 19.5507L23.2946 15.4224ZM23.3002 16.747L16.2292 20.8724L9.16186 16.748L16.2292 26.5878L23.3002 16.747Z" fill="#483B70"/>
<g id="Group_2">
<path id="Vector_2" d="M16.2292 3.83691V12.247L23.2955 15.4233L16.2292 3.83691ZM16.2292 20.8732V26.5877L23.3003 16.7469L16.2292 20.8732Z" fill="#483B70" fill-opacity="0.298"/>
<path id="Vector_3" d="M16.2292 19.5505L23.2956 15.4232L16.2292 12.2488V19.5505Z" fill="#483B70" fill-opacity="0.801"/>
<path id="Vector_4" d="M9.16187 15.4232L16.2292 19.5505V12.2488L9.16187 15.4232Z" fill="#483B70" fill-opacity="0.298"/>
</g>
</g>
</svg>
